<svg xmlns="http://www.w3.org/2000/svg" viewBox="0 0 24 24" role="img" aria-hidden="true" class="v-icon__svg" fill="white"><path d="M 11.900391,1.9003906 C 6.4004012,1.9003906 1.8007813,6.500011 1.8007812,12 c 0,5.499989 4.4996202,10.099609 10.0996098,10.099609 5.599988,0 10.199218,-4.499621 10.199218,-10.099609 0,-5.5999888 -4.59923,-10.0996094 -10.199218,-10.0996094 z m 0,1.0996094 c 4.99999,0 9,4.00001 9,9 0,4.99999 -4.00001,9 -9,9 -4.9999908,0 -9.0000004,-4.00001 -9.0000004,-9 0,-4.99999 4.0000096,-9 9.0000004,-9 z m 0.298828,3.8007812 c -0.7,0.1 -1.298438,0.2000007 -1.898438,0.5 C 9.7007826,7.6007808 9.2999994,7.9996106 9,8.5996094 c -0.2999994,0.499999 10e-7,1.0011722 0.5,1.2011718 0.3999992,0.1 0.700391,-0.1003912 0.900391,-0.4003906 0.499998,-0.6999986 1.098828,-0.8007812 1.798828,-0.8007812 0.599998,0 0.90039,0.4000012 0.90039,1 0,0.1999996 -0.09922,0.3996096 -0.199218,0.5996096 C 12.600391,10.499217 12.3,10.7 12,11 c -0.799998,0.599998 -1.199219,1.500393 -1.199219,2.400391 0,0.1 -3.9e-4,0.30039 0.09961,0.40039 0.299998,0.3 0.699609,0.398828 1.099609,0.298828 0.4,-0.1 0.599609,-0.398828 0.599609,-0.798828 0,-0.499998 0.301174,-1.000781 0.701172,-1.300781 0.3,-0.3 0.598438,-0.499219 0.898438,-0.699219 0.599998,-0.399998 0.90039,-1.200002 0.90039,-1.9999998 C 14.999609,8.2007835 14.400779,7.2999994 13.300781,7 12.900783,6.9 12.599217,6.8007812 12.199219,6.8007812 Z M 11.599609,15 c -0.699998,0.1 -1,0.399221 -1,1.199219 0,0.499998 0.49961,0.90039 1.09961,0.90039 0.699998,0 1,-0.399611 1,-1.099609 0,-0.699998 -0.49961,-1 -1.09961,-1 z"></path></svg>